<svg version="1.1" id="Layer_1" xmlns="http://www.w3.org/2000/svg" xmlns:xlink="http://www.w3.org/1999/xlink" x="0px" y="0px"
	 width="100%" viewBox="0 0 1523 1530" enable-background="new 0 0 1523 1530" xml:space="preserve">

<path fill="#C8C8C8" opacity="1.000000" stroke="none" 
	d="
M252.975342,1233.009277 
	C251.699631,1223.662109 250.137344,1214.343628 249.203979,1204.962402 
	C246.765701,1180.455322 244.573013,1155.923828 242.338287,1131.396973 
	C240.194000,1107.862427 238.176804,1084.316284 235.999985,1060.784790 
	C233.501389,1033.774902 230.838211,1006.780334 228.340683,979.770447 
	C226.164810,956.239197 224.176743,932.690552 222.002197,909.159180 
	C219.521500,882.315063 216.887802,855.485107 214.393478,828.642212 
	C212.545685,808.757141 210.858521,788.857239 209.019745,768.971313 
	C206.859360,745.607239 204.580521,722.254150 202.412689,698.890747 
	C200.582947,679.170776 198.871140,659.439819 197.047745,639.719299 
	C194.872162,616.189697 192.615097,592.667542 190.427536,569.138977 
	C188.624939,549.750793 186.886017,530.356628 185.093582,510.967438 
	C183.209457,490.586395 181.272110,470.210266 179.400848,449.828033 
	C177.590240,430.106354 175.859543,410.377350 174.046997,390.655853 
	C172.234634,370.936401 170.368515,351.221893 168.518570,331.505920 
	C165.704132,301.510529 181.056961,266.587830 213.448914,256.768066 
	C223.783951,253.634964 235.019379,253.285034 245.894379,252.160065 
	C266.573456,250.020905 287.286652,248.207184 307.991425,246.321564 
	C327.870819,244.511124 347.762421,242.834488 367.639557,241.000183 
	C387.348297,239.181458 407.041382,237.193634 426.749146,235.364227 
	C446.459625,233.534576 466.183167,231.846176 485.894714,230.027786 
	C505.769135,228.194351 525.634094,226.258530 545.506470,224.402802 
	C561.241211,222.933472 576.982300,221.532150 592.718079,220.074066 
	C613.088318,218.186554 633.453735,216.247406 653.825562,214.377350 
	C673.538269,212.567810 693.259460,210.850433 712.971375,209.032349 
	C732.846130,207.199249 752.712219,205.272964 772.585449,203.423355 
	C788.486267,201.943466 804.393860,200.536682 820.295227,199.062500 
	C840.499268,197.189438 860.698792,195.267029 880.902710,193.392532 
	C896.638672,191.932587 912.379700,190.528030 928.116028,189.072372 
	C948.487000,187.188019 968.854492,185.265228 989.225525,183.381943 
	C1004.961731,181.927124 1020.702820,180.524048 1036.438965,179.068359 
	C1056.809814,177.183945 1077.177734,175.269516 1097.546997,173.369110 
	C1112.452759,171.978439 1127.355469,170.551132 1142.265747,169.210358 
	C1158.335938,167.765259 1174.410156,166.361145 1190.488770,165.012512 
	C1214.668457,162.984360 1232.878418,173.382339 1246.682007,192.687592 
	C1245.031982,193.969955 1243.682495,195.579224 1242.277466,195.629105 
	C1235.902466,195.855438 1232.326050,200.307373 1228.318604,204.185379 
	C1225.090332,207.309296 1222.251953,211.000793 1218.591431,213.483170 
	C1206.572998,221.633377 1194.562256,229.441025 1186.557739,242.304535 
	C1182.529053,248.778748 1176.299316,253.883423 1170.605469,259.706604 
	C1155.749390,260.943481 1141.342896,261.966858 1126.959473,263.249207 
	C1110.608643,264.707031 1094.282715,266.443939 1077.937622,267.969330 
	C1065.712524,269.110229 1053.469971,270.065430 1041.242310,271.179962 
	C1023.900330,272.760620 1006.566040,274.425659 989.226074,276.028137 
	C977.496765,277.112091 965.760071,278.115906 954.032471,279.217316 
	C937.356873,280.783417 920.690491,282.449493 904.012634,283.990509 
	C891.786316,285.120239 879.543152,286.066467 867.315857,287.186401 
	C850.140259,288.759583 832.973755,290.432526 815.800781,292.034912 
	C804.238098,293.113831 792.666870,294.102051 781.106750,295.207245 
	C764.930115,296.753815 748.766724,298.440155 732.585632,299.936798 
	C719.862488,301.113586 707.114868,302.024445 694.389465,303.178223 
	C677.212036,304.735596 660.047058,306.429413 642.873657,308.032349 
	C631.311035,309.111603 619.741272,310.113831 608.178223,311.188385 
	C591.004578,312.784363 573.835999,314.434448 556.661621,316.022034 
	C544.766174,317.121674 532.860413,318.110840 520.966675,319.228271 
	C504.456818,320.779480 487.958527,322.454620 471.446503,323.981812 
	C459.055084,325.127899 446.643677,326.058075 434.252197,327.204010 
	C417.574341,328.746307 400.910553,330.440033 384.234253,331.999512 
	C372.174866,333.127197 360.099396,334.083557 348.041107,335.221954 
	C331.863068,336.749329 315.698456,338.419220 299.520813,339.950928 
	C287.321991,341.105896 275.111694,342.139984 262.773254,343.239777 
	C262.773254,343.931152 262.736969,344.394531 262.778473,344.850861 
	C264.145874,359.888641 265.564636,374.921875 266.881287,389.964081 
	C268.039307,403.193573 269.006775,416.439972 270.198792,429.666260 
	C271.732422,446.683258 273.435120,463.684937 275.009644,480.698364 
	C276.126129,492.762695 277.092438,504.841034 278.231293,516.903198 
	C279.759216,533.086487 281.445251,549.254822 282.956573,565.439575 
	C284.113861,577.833191 285.048981,590.247559 286.184784,602.643311 
	C287.743896,619.658508 289.428467,636.662109 291.003510,653.675842 
	C292.120331,665.739929 293.102966,677.816467 294.220886,689.880432 
	C295.782074,706.728088 297.447266,723.566040 299.003540,740.414124 
	C300.117889,752.477966 301.075226,764.556274 302.194946,776.619568 
	C303.758789,793.467957 305.437500,810.305603 307.012024,827.153015 
	C308.123840,839.049866 309.108124,850.958496 310.214294,862.855896 
	C311.780701,879.703247 313.438049,896.542114 314.997192,913.390137 
	C316.128937,925.619995 317.116028,937.863281 318.254944,950.092468 
	C319.793091,966.608521 321.449738,983.113464 322.989410,999.629395 
	C324.113953,1011.692139 325.069031,1023.770813 326.212799,1035.831665 
	C327.731750,1051.848877 329.448975,1067.847412 330.918030,1083.868896 
	C332.433472,1100.396606 333.660553,1116.950562 335.182831,1133.477539 
	C337.023804,1153.464111 339.042328,1173.434204 340.948090,1193.739502 
	C333.608917,1203.057983 326.305664,1212.048584 318.930542,1220.662476 
	C317.247162,1220.021118 315.499786,1219.215210 314.046356,1219.580078 
	C305.111389,1221.823364 296.323517,1224.702515 287.331818,1226.657593 
	C275.957031,1229.130737 264.434265,1230.923218 252.975342,1233.009277 
z"/>
<path fill="#B5B5B5" opacity="1.000000" stroke="none" 
	d="
M319.002441,1221.039062 
	C326.305664,1212.048584 333.608917,1203.057983 341.398438,1193.634888 
	C344.545380,1193.057129 347.214264,1193.000244 349.865387,1192.752808 
	C370.204681,1190.855347 390.537292,1188.885498 410.878479,1187.009033 
	C426.925446,1185.528564 442.987274,1184.208862 459.032227,1182.707886 
	C478.542755,1180.882446 498.037506,1178.888916 517.548340,1177.067261 
	C533.592896,1175.569336 549.654907,1174.259399 565.702087,1172.788452 
	C586.375610,1170.893555 607.039673,1168.895630 627.712219,1166.989502 
	C643.427124,1165.540283 659.152161,1164.200439 674.866821,1162.748413 
	C695.373169,1160.853394 715.871826,1158.874756 736.377563,1156.972290 
	C751.926208,1155.529663 767.484192,1154.187256 783.031860,1152.733887 
	C803.039612,1150.863647 823.037415,1148.887329 843.046448,1147.031860 
	C858.926575,1145.559082 874.820862,1144.238770 890.702209,1142.778687 
	C911.375305,1140.878540 932.039490,1138.881470 952.712036,1136.974609 
	C968.427612,1135.525024 984.155579,1134.208252 999.868408,1132.729980 
	C1019.378174,1130.894165 1038.872803,1128.896484 1058.383789,1127.074585 
	C1074.428101,1125.576416 1090.490723,1124.276611 1106.537964,1122.809570 
	C1127.377563,1120.904419 1148.208862,1118.908081 1169.046143,1116.975342 
	C1181.121094,1115.855469 1193.198120,1114.754150 1205.278809,1113.697632 
	C1220.169434,1112.395630 1235.064697,1111.149292 1250.095093,1110.192627 
	C1259.533569,1118.838257 1268.834961,1127.169922 1277.332642,1134.781616 
	C1279.680542,1134.337646 1281.255249,1133.644653 1282.713867,1133.836182 
	C1287.623535,1134.480469 1292.622192,1134.990112 1297.351929,1136.361206 
	C1312.204712,1140.666748 1327.341553,1141.583374 1342.661987,1140.990723 
	C1338.305786,1169.359497 1319.659668,1191.666382 1294.429443,1197.325439 
	C1284.588135,1199.532715 1274.317505,1199.906738 1264.219116,1200.872070 
	C1236.543701,1203.517578 1208.857178,1206.047485 1181.172729,1208.596680 
	C1157.962280,1210.734009 1134.746704,1212.813965 1111.536865,1214.956421 
	C1084.349243,1217.466064 1057.166260,1220.024780 1029.979614,1222.545532 
	C1006.936890,1224.682007 983.891418,1226.788086 960.848267,1228.919922 
	C936.977295,1231.128174 913.108521,1233.359375 889.237305,1235.565186 
	C866.193970,1237.694580 843.147888,1239.794434 820.104675,1241.925293 
	C792.586121,1244.469849 765.070496,1247.046631 737.551270,1249.584473 
	C714.341614,1251.725098 691.126892,1253.812256 667.917419,1255.955566 
	C644.377075,1258.129639 620.841675,1260.356812 597.301819,1262.536499 
	C574.093140,1264.685547 550.880798,1266.794678 527.671631,1268.938965 
	C503.965942,1271.129150 480.262238,1273.341309 456.557556,1275.542847 
	C433.846741,1277.651978 411.138672,1279.791260 388.424103,1281.858887 
	C365.378967,1283.956665 342.331848,1286.035767 319.276337,1288.015137 
	C309.450256,1288.858643 300.070740,1286.938232 291.244202,1282.297119 
	C293.358246,1279.297729 295.933380,1276.993530 297.316193,1274.116455 
	C302.625519,1263.069702 307.793091,1251.940063 312.528107,1240.638184 
	C315.178680,1234.311523 316.875732,1227.585205 319.002441,1221.039062 
z"/>
<path fill="#BCBCBC" opacity="1.000000" stroke="none" 
	d="
M1342.778076,1140.573486 
	C1327.341553,1141.583374 1312.204712,1140.666748 1297.351929,1136.361206 
	C1292.622192,1134.990112 1287.623535,1134.480469 1282.713867,1133.836182 
	C1281.255249,1133.644653 1279.680542,1134.337646 1277.332642,1134.781616 
	C1268.834961,1127.169922 1259.533569,1118.838257 1250.025391,1109.797852 
	C1249.216064,1103.315674 1248.545288,1097.548340 1248.024902,1091.767578 
	C1246.893311,1079.197632 1245.905029,1066.614502 1244.737305,1054.048218 
	C1242.878906,1034.050171 1240.887817,1014.064636 1239.019165,994.067688 
	C1237.860352,981.667480 1236.870361,969.251587 1235.721191,956.850403 
	C1234.189697,940.322632 1232.540161,923.805847 1231.010010,907.277954 
	C1229.555786,891.571167 1228.230469,875.852478 1226.775024,860.145813 
	C1224.891113,839.815979 1222.903076,819.495789 1221.019897,799.165894 
	C1219.871094,786.764282 1218.892578,774.346985 1217.736450,761.946167 
	C1215.872192,741.948853 1213.871338,721.964233 1212.028687,701.965027 
	C1210.535645,685.760498 1209.279541,669.533997 1207.758789,653.332275 
	C1205.602905,630.361572 1203.223633,607.411804 1201.086060,584.439453 
	C1199.547485,567.905579 1198.351807,551.339844 1196.816162,534.805725 
	C1194.651733,511.502167 1192.234375,488.222107 1190.075562,464.918060 
	C1188.222290,444.911987 1186.684570,424.876648 1184.818726,404.871826 
	C1182.336792,378.263123 1179.628418,351.675537 1177.099487,325.071075 
	C1175.025879,303.255768 1173.072021,281.429108 1171.065063,259.607452 
	C1176.299316,253.883423 1182.529053,248.778748 1186.557739,242.304535 
	C1194.562256,229.441025 1206.572998,221.633377 1218.591431,213.483170 
	C1222.251953,211.000793 1225.090332,207.309296 1228.318604,204.185379 
	C1232.326050,200.307373 1235.902466,195.855438 1242.277466,195.629105 
	C1243.682495,195.579224 1245.031982,193.969955 1246.771973,193.020187 
	C1255.218994,203.341492 1259.557617,215.343506 1260.842407,228.202591 
	C1265.045898,270.270691 1268.876343,312.376495 1272.755249,354.476532 
	C1276.588501,396.080505 1280.276611,437.697815 1284.083374,479.304260 
	C1288.041626,522.567810 1292.035400,565.828125 1296.068848,609.084717 
	C1299.932251,650.518005 1303.922241,691.939453 1307.753540,733.375671 
	C1311.263184,771.332153 1314.573486,809.307129 1318.083740,847.263611 
	C1322.253052,892.346313 1326.597778,937.412842 1330.763184,982.495911 
	C1334.606812,1024.098877 1338.458496,1065.702393 1341.983032,1107.333008 
	C1342.904907,1118.221802 1342.623169,1129.212524 1342.778076,1140.573486 
z"/>
<path fill="#BCBCBC" opacity="1.000000" stroke="none" 
	d="
M318.930542,1220.662476 
	C316.875732,1227.585205 315.178680,1234.311523 312.528107,1240.638184 
	C307.793091,1251.940063 302.625519,1263.069702 297.316193,1274.116455 
	C295.933380,1276.993530 293.358246,1279.297729 291.004761,1282.023315 
	C271.722473,1273.339478 260.690918,1257.839844 254.126511,1238.609619 
	C253.596069,1237.055664 253.331238,1235.411133 252.959137,1233.408936 
	C264.434265,1230.923218 275.957031,1229.130737 287.331818,1226.657593 
	C296.323517,1224.702515 305.111389,1221.823364 314.046356,1219.580078 
	C315.499786,1219.215210 317.247162,1220.021118 318.930542,1220.662476 
z"/>
<path fill="#FFFFFF" opacity="1.000000" stroke="none" 
	d="
M1170.605469,259.706604 
	C1173.072021,281.429108 1175.025879,303.255768 1177.099487,325.071075 
	C1179.628418,351.675537 1182.336792,378.263123 1184.818726,404.871826 
	C1186.684570,424.876648 1188.222290,444.911987 1190.075562,464.918060 
	C1192.234375,488.222107 1194.651733,511.502167 1196.816162,534.805725 
	C1198.351807,551.339844 1199.547485,567.905579 1201.086060,584.439453 
	C1203.223633,607.411804 1205.602905,630.361572 1207.758789,653.332275 
	C1209.279541,669.533997 1210.535645,685.760498 1212.028687,701.965027 
	C1213.871338,721.964233 1215.872192,741.948853 1217.736450,761.946167 
	C1218.892578,774.346985 1219.871094,786.764282 1221.019897,799.165894 
	C1222.903076,819.495789 1224.891113,839.815979 1226.775024,860.145813 
	C1228.230469,875.852478 1229.555786,891.571167 1231.010010,907.277954 
	C1232.540161,923.805847 1234.189697,940.322632 1235.721191,956.850403 
	C1236.870361,969.251587 1237.860352,981.667480 1239.019165,994.067688 
	C1240.887817,1014.064636 1242.878906,1034.050171 1244.737305,1054.048218 
	C1245.905029,1066.614502 1246.893311,1079.197632 1248.024902,1091.767578 
	C1248.545288,1097.548340 1249.216064,1103.315674 1249.888306,1109.483887 
	C1235.064697,1111.149292 1220.169434,1112.395630 1205.278809,1113.697632 
	C1193.198120,1114.754150 1181.121094,1115.855469 1169.046143,1116.975342 
	C1148.208862,1118.908081 1127.377563,1120.904419 1106.537964,1122.809570 
	C1090.490723,1124.276611 1074.428101,1125.576416 1058.383789,1127.074585 
	C1038.872803,1128.896484 1019.378174,1130.894165 999.868408,1132.729980 
	C984.155579,1134.208252 968.427612,1135.525024 952.712036,1136.974609 
	C932.039490,1138.881470 911.375305,1140.878540 890.702209,1142.778687 
	C874.820862,1144.238770 858.926575,1145.559082 843.046448,1147.031860 
	C823.037415,1148.887329 803.039612,1150.863647 783.031860,1152.733887 
	C767.484192,1154.187256 751.926208,1155.529663 736.377563,1156.972290 
	C715.871826,1158.874756 695.373169,1160.853394 674.866821,1162.748413 
	C659.152161,1164.200439 643.427124,1165.540283 627.712219,1166.989502 
	C607.039673,1168.895630 586.375610,1170.893555 565.702087,1172.788452 
	C549.654907,1174.259399 533.592896,1175.569336 517.548340,1177.067261 
	C498.037506,1178.888916 478.542755,1180.882446 459.032227,1182.707886 
	C442.987274,1184.208862 426.925446,1185.528564 410.878479,1187.009033 
	C390.537292,1188.885498 370.204681,1190.855347 349.865387,1192.752808 
	C347.214264,1193.000244 344.545380,1193.057129 341.434387,1193.306885 
	C339.042328,1173.434204 337.023804,1153.464111 335.182831,1133.477539 
	C333.660553,1116.950562 332.433472,1100.396606 330.918030,1083.868896 
	C329.448975,1067.847412 327.731750,1051.848877 326.212799,1035.831665 
	C325.069031,1023.770813 324.113953,1011.692139 322.989410,999.629395 
	C321.449738,983.113464 319.793091,966.608521 318.254944,950.092468 
	C317.116028,937.863281 316.128937,925.619995 314.997192,913.390137 
	C313.438049,896.542114 311.780701,879.703247 310.214294,862.855896 
	C309.108124,850.958496 308.123840,839.049866 307.012024,827.153015 
	C305.437500,810.305603 303.758789,793.467957 302.194946,776.619568 
	C301.075226,764.556274 300.117889,752.477966 299.003540,740.414124 
	C297.447266,723.566040 295.782074,706.728088 294.220886,689.880432 
	C293.102966,677.816467 292.120331,665.739929 291.003510,653.675842 
	C289.428467,636.662109 287.743896,619.658508 286.184784,602.643311 
	C285.048981,590.247559 284.113861,577.833191 282.956573,565.439575 
	C281.445251,549.254822 279.759216,533.086487 278.231293,516.903198 
	C277.092438,504.841034 276.126129,492.762695 275.009644,480.698364 
	C273.435120,463.684937 271.732422,446.683258 270.198792,429.666260 
	C269.006775,416.439972 268.039307,403.193573 266.881287,389.964081 
	C265.564636,374.921875 264.145874,359.888641 262.778473,344.850861 
	C262.736969,344.394531 262.773254,343.931152 262.773254,343.239777 
	C275.111694,342.139984 287.321991,341.105896 299.520813,339.950928 
	C315.698456,338.419220 331.863068,336.749329 348.041107,335.221954 
	C360.099396,334.083557 372.174866,333.127197 384.234253,331.999512 
	C400.910553,330.440033 417.574341,328.746307 434.252197,327.204010 
	C446.643677,326.058075 459.055084,325.127899 471.446503,323.981812 
	C487.958527,322.454620 504.456818,320.779480 520.966675,319.228271 
	C532.860413,318.110840 544.766174,317.121674 556.661621,316.022034 
	C573.835999,314.434448 591.004578,312.784363 608.178223,311.188385 
	C619.741272,310.113831 631.311035,309.111603 642.873657,308.032349 
	C660.047058,306.429413 677.212036,304.735596 694.389465,303.178223 
	C707.114868,302.024445 719.862488,301.113586 732.585632,299.936798 
	C748.766724,298.440155 764.930115,296.753815 781.106750,295.207245 
	C792.666870,294.102051 804.238098,293.113831 815.800781,292.034912 
	C832.973755,290.432526 850.140259,288.759583 867.315857,287.186401 
	C879.543152,286.066467 891.786316,285.120239 904.012634,283.990509 
	C920.690491,282.449493 937.356873,280.783417 954.032471,279.217316 
	C965.760071,278.115906 977.496765,277.112091 989.226074,276.028137 
	C1006.566040,274.425659 1023.900330,272.760620 1041.242310,271.179962 
	C1053.469971,270.065430 1065.712524,269.110229 1077.937622,267.969330 
	C1094.282715,266.443939 1110.608643,264.707031 1126.959473,263.249207 
	C1141.342896,261.966858 1155.749390,260.943481 1170.605469,259.706604 
M771.413940,931.927063 
	C771.370728,930.628174 771.327515,929.329346 771.604919,927.158142 
	C770.935486,917.227966 770.404297,907.284241 769.436829,897.383179 
	C769.303040,896.014526 766.971680,893.744690 765.724304,893.788452 
	C759.335327,894.012634 752.968262,894.857910 746.582581,895.487183 
	C746.582581,898.465332 746.411926,900.787842 746.609619,903.078613 
	C748.165222,921.099182 749.820740,939.111084 751.383179,957.131104 
	C752.172180,966.231812 752.800720,975.346313 753.565430,984.449280 
	C753.869568,988.069885 755.272095,990.151428 759.599915,989.659973 
	C769.644958,988.519104 779.749390,987.911377 789.805237,986.854126 
	C801.784485,985.594727 813.712769,983.784973 825.711121,982.793884 
	C834.720398,982.049744 834.964050,982.513611 837.286316,973.788025 
	C838.106567,970.705994 839.452576,969.846008 842.393005,969.739380 
	C848.693115,969.511047 855.015930,969.203308 861.259460,968.390564 
	C864.798584,967.929871 866.579346,968.368225 867.929871,972.133911 
	C869.012878,975.153687 870.035645,979.464233 875.313354,978.584595 
	C881.653503,977.527893 888.058716,976.861389 895.412415,975.897949 
	C894.086914,973.587402 892.759094,971.729553 891.886047,969.678223 
	C885.408569,954.459473 879.007751,939.208008 872.610535,923.955139 
	C867.665649,912.165039 862.797424,900.342590 857.808838,888.571045 
	C856.760803,886.098022 855.458740,883.773132 851.954773,884.368530 
	C847.593933,885.109497 843.205627,885.763550 838.802429,886.152039 
	C836.138611,886.387146 834.730774,887.095459 834.112305,890.068604 
	C832.261353,898.967285 830.038147,907.791321 827.838562,916.614197 
	C823.028992,935.905640 818.152039,955.180359 813.267700,974.453003 
	C813.029663,975.392090 812.457581,976.246521 812.041077,977.140381 
	C810.541870,973.598877 809.860352,970.222229 809.821899,966.838257 
	C809.782715,963.389465 808.511047,961.913391 805.050415,962.248535 
	C798.442566,962.888550 791.806641,963.282410 785.219788,964.085205 
	C776.575500,965.138611 776.530212,965.235168 773.795227,957.276306 
	C773.652527,955.543762 773.509827,953.811279 773.697021,951.194702 
	C772.883728,944.984314 772.070374,938.773865 771.413940,931.927063 
M1082.971436,849.959412 
	C1089.958130,849.282227 1096.944824,848.605042 1104.848145,848.083679 
	C1112.947144,847.322754 1121.046021,846.561890 1129.865845,845.809143 
	C1130.814209,845.706726 1131.762573,845.604309 1133.521973,845.874573 
	C1136.665527,845.609009 1139.839355,845.534180 1142.946289,845.038940 
	C1149.922607,843.927002 1158.363525,844.832581 1158.606689,833.894531 
	C1158.628174,832.925781 1161.382324,831.402405 1163.002441,831.195496 
	C1168.772461,830.458923 1174.606567,830.241577 1180.405884,829.712646 
	C1188.220703,828.999878 1188.110840,829.005005 1191.520874,836.095947 
	C1192.237183,837.585693 1194.092041,839.630249 1195.343506,839.576782 
	C1202.099854,839.288330 1208.831421,838.419739 1215.487183,837.759583 
	C1215.571167,837.301392 1215.674927,837.106567 1215.620850,836.978088 
	C1203.248779,807.555603 1190.896973,778.124329 1178.367432,748.768982 
	C1177.872192,747.608459 1175.659912,746.480042 1174.285156,746.523560 
	C1169.643555,746.670532 1165.027832,747.555298 1160.384766,747.756226 
	C1157.543335,747.879150 1156.399780,748.871399 1155.789673,751.693115 
	C1154.069092,759.650635 1152.021484,767.539917 1149.990112,775.427002 
	C1147.350708,785.674133 1144.602417,795.893250 1141.524658,805.402527 
	C1121.465088,669.305603 1101.405396,533.208740 1081.269287,396.591949 
	C1045.512451,399.741272 1010.098694,402.860352 974.573059,405.989319 
	C950.900757,502.344086 927.316589,598.339905 903.487488,695.332825 
	C902.314758,692.881042 901.583984,691.423828 900.912659,689.939697 
	C861.303589,602.364563 821.689941,514.791565 782.140808,427.189392 
	C780.942383,424.534760 780.043030,422.995667 776.446289,423.350677 
	C755.082764,425.459625 733.681213,427.181580 712.295410,429.066864 
	C699.555664,430.189972 686.821411,431.374115 673.593689,432.575378 
	C677.225159,583.535339 680.848938,734.175842 684.479370,885.092285 
	C713.398560,882.546143 741.569214,880.065857 770.569641,877.907227 
	C775.682129,877.392395 780.784668,876.708435 785.909729,876.408386 
	C791.474548,876.082581 794.758911,873.740784 794.997314,867.839478 
	C795.133972,864.456970 796.963135,863.057373 800.477478,862.971558 
	C806.116943,862.833984 811.749084,862.234131 817.374634,861.722900 
	C825.228638,861.009094 825.092224,861.031677 828.512268,868.045471 
	C829.268616,869.596497 831.365601,871.587891 832.779419,871.537231 
	C839.381714,871.300598 845.960938,870.419800 852.487000,869.775330 
	C852.557068,869.396973 852.661194,869.202454 852.607300,869.074219 
	C840.199097,839.542419 827.805847,810.004211 815.255981,780.532593 
	C814.804626,779.472595 812.779785,778.426880 811.533569,778.478027 
	C806.897522,778.668396 802.289001,779.536377 797.653137,779.721558 
	C794.640564,779.841858 793.405884,780.870850 792.723145,783.896545 
	C791.129333,790.959717 789.012024,797.904785 787.036804,803.975037 
	C786.096802,764.943604 785.156799,725.912170 784.216797,686.880798 
	C785.510254,687.809326 786.092590,688.795654 786.557617,689.834473 
	C797.062073,713.300659 807.517090,736.789062 818.057190,760.239319 
	C830.296326,787.469421 842.608093,814.666870 854.792664,842.613464 
	C855.948669,851.594055 857.104736,860.574585 858.276611,869.678406 
	C870.952515,868.758057 883.195251,867.978394 895.416321,866.942627 
	C903.295349,866.274841 911.142578,865.231262 919.916748,864.245422 
	C928.238647,863.455811 936.560608,862.666199 945.728271,862.027832 
	C956.410339,864.182068 966.451904,863.080566 975.145813,855.893555 
	C984.035217,848.544861 988.170227,839.105591 986.225281,827.617676 
	C985.380432,822.627808 983.398132,817.830444 982.047974,812.177551 
	C984.274170,803.122070 986.500366,794.066589 989.671814,785.094360 
	C994.599365,784.735779 999.526978,784.377197 1004.913025,783.985229 
	C1007.084595,808.196838 1009.225647,832.068054 1011.400330,856.314209 
	C1018.950073,855.661560 1025.849731,855.065125 1033.376831,854.414429 
	C1031.262085,830.075439 1029.186401,806.184814 1027.088745,782.041321 
	C1029.387329,782.041321 1031.166504,782.041321 1033.036255,782.868896 
	C1036.543701,806.253784 1040.051147,829.638611 1043.608276,853.354614 
	C1049.409790,852.856018 1054.683716,852.402832 1060.854980,852.116333 
	C1067.935059,851.369385 1075.015015,850.622437 1082.971436,849.959412 
M566.654785,682.839783 
	C563.269653,644.611511 559.884460,606.383179 556.465393,567.772339 
	C592.964050,564.534058 628.834839,561.351501 664.861511,558.155090 
	C660.970215,514.072754 657.144226,470.730591 653.297913,427.158112 
	C537.502502,437.372681 422.373077,447.528473 307.011353,457.704773 
	C310.889069,501.657593 314.716827,545.044250 318.569244,588.710327 
	C354.569550,585.546814 390.130890,582.421875 426.185608,579.253601 
	C439.007812,724.666199 451.804657,869.791321 464.629974,1015.239380 
	C508.393066,1011.373718 551.557251,1007.560913 594.873901,1003.734680 
	C593.415771,986.962097 592.033997,970.889526 590.618286,954.819946 
	C587.755737,922.325989 584.871033,889.833984 582.002625,857.340576 
	C579.514709,829.156860 577.022644,800.973511 574.558289,772.787720 
	C571.963440,743.109558 569.399170,713.428772 566.654785,682.839783 
M598.673767,941.968445 
	C599.183105,947.588989 599.736816,953.205933 600.192932,958.830811 
	C601.240234,971.748962 602.286072,984.667664 603.231750,997.593506 
	C603.526184,1001.617432 605.001343,1003.681824 609.454895,1002.928772 
	C614.760254,1002.031494 620.112122,1001.340698 625.469788,1000.834717 
	C637.049927,999.740906 648.640930,998.747009 660.240173,997.881348 
	C663.398438,997.645630 664.190125,996.148315 663.888977,993.327271 
	C663.377563,988.537354 662.961365,983.736511 662.565674,978.935242 
	C662.333252,976.115845 660.999634,975.478271 658.212341,975.790222 
	C649.627319,976.750916 641.011108,977.464905 632.393921,978.096558 
	C623.841125,978.723572 623.992798,978.609802 622.953796,969.949768 
	C622.425964,965.550659 623.948792,964.023926 628.307251,963.843140 
	C635.600891,963.540649 642.889038,962.825134 650.135254,961.926636 
	C651.425476,961.766663 653.544678,959.832153 653.500305,958.793213 
	C653.274109,953.505188 652.656067,948.206848 651.703247,942.998474 
	C651.495911,941.864990 649.327576,940.242798 648.111206,940.284058 
	C641.977844,940.492310 635.829346,940.941467 629.745361,941.750732 
	C621.431641,942.856506 621.666809,942.990906 620.242981,934.943176 
	C619.506104,930.778320 620.643921,929.103455 624.864319,928.843201 
	C633.315308,928.322083 641.767822,927.681946 650.182495,926.753540 
	C658.910217,925.790588 658.675415,925.096252 657.108582,918.544739 
	C656.727539,916.951172 656.888672,915.230652 656.772644,913.570496 
	C656.124512,904.291382 656.116821,904.235291 646.946228,905.026062 
	C631.559448,906.352844 616.192322,907.942139 600.788635,909.015381 
	C596.450073,909.317688 595.905823,911.269348 596.226746,914.742188 
	C597.036926,923.509949 597.743835,932.287354 598.673767,941.968445 
M721.481262,899.815552 
	C710.536011,898.043945 700.036621,898.894775 689.904480,904.006287 
	C666.420471,915.854004 657.170898,945.914551 670.459534,968.509094 
	C678.431396,982.063782 689.922668,990.302002 705.995972,992.054138 
	C721.134827,993.704468 733.744446,988.941406 744.706055,978.820312 
	C746.631470,977.042603 747.297485,975.510010 744.874695,973.551697 
	C740.251343,969.814758 735.741211,965.937927 731.092712,962.042542 
	C729.591248,963.294617 728.477783,964.265930 727.320435,965.181824 
	C715.420593,974.598450 697.755554,971.692505 690.341980,959.106873 
	C684.365723,948.961304 685.671814,935.852295 693.430542,928.107300 
	C701.699890,919.852661 714.255371,918.256409 724.709900,924.475464 
	C727.389221,926.069275 728.640991,925.676514 730.395020,923.323120 
	C733.073669,919.729309 736.059509,916.337830 739.157898,913.092407 
	C741.380310,910.764587 741.247498,908.929626 738.510010,907.577515 
	C733.164795,904.937439 727.704651,902.530029 721.481262,899.815552 
z"/>
<path fill="#010101" opacity="1.000000" stroke="none" 
	d="
M854.888306,841.878540 
	C842.608093,814.666870 830.296326,787.469421 818.057190,760.239319 
	C807.517090,736.789062 797.062073,713.300659 786.557617,689.834473 
	C786.092590,688.795654 785.510254,687.809326 784.216797,686.880798 
	C785.156799,725.912170 786.096802,764.943604 786.969727,804.851135 
	C786.820984,806.877258 786.904724,808.067871 786.633484,809.171265 
	C781.026550,831.981995 775.379211,854.782776 769.739929,877.585571 
	C741.569214,880.065857 713.398560,882.546143 684.479370,885.092285 
	C680.848938,734.175842 677.225159,583.535339 673.593689,432.575378 
	C686.821411,431.374115 699.555664,430.189972 712.295410,429.066864 
	C733.681213,427.181580 755.082764,425.459625 776.446289,423.350677 
	C780.043030,422.995667 780.942383,424.534760 782.140808,427.189392 
	C821.689941,514.791565 861.303589,602.364563 900.912659,689.939697 
	C901.583984,691.423828 902.314758,692.881042 903.487488,695.332825 
	C927.316589,598.339905 950.900757,502.344086 974.573059,405.989319 
	C1010.098694,402.860352 1045.512451,399.741272 1081.269287,396.591949 
	C1101.405396,533.208740 1121.465088,669.305603 1141.610474,806.155640 
	C1141.717773,807.730286 1141.923340,808.597290 1141.733398,809.366577 
	C1138.755981,821.419067 1135.727539,833.459106 1132.710938,845.501953 
	C1131.762573,845.604309 1130.814209,845.706726 1129.479004,845.455322 
	C1121.549683,834.618774 1114.007324,824.136108 1106.513672,813.721313 
	C1125.696411,791.990906 1114.382690,763.239258 1087.349243,756.700500 
	C1075.562744,753.849609 1064.040649,757.070618 1052.063843,757.505615 
	C1053.607178,775.005432 1055.150635,791.871765 1056.565918,808.748718 
	C1057.772949,823.142578 1058.832642,837.548889 1059.957520,851.949585 
	C1054.683716,852.402832 1049.409790,852.856018 1043.608276,853.354614 
	C1040.051147,829.638611 1036.543701,806.253784 1033.259521,782.132690 
	C1037.206543,781.023743 1040.930176,780.650940 1045.111816,780.232239 
	C1044.376099,772.635559 1043.687012,765.519592 1043.043701,758.876953 
	C1038.046631,758.876953 1033.788330,758.876953 1029.424316,758.448608 
	C1025.140869,729.764526 1020.963257,701.508850 1016.622620,672.151062 
	C1015.865479,674.706055 1015.340027,676.242798 1014.955078,677.813904 
	C1010.253052,697.007629 1005.511902,716.192139 1000.911255,735.410217 
	C998.758484,744.402710 996.887512,753.462646 994.491089,762.411682 
	C991.235413,762.744751 988.377380,763.158081 985.045471,763.640015 
	C985.769897,770.712830 986.450745,777.531799 987.228699,784.339661 
	C987.260376,784.616943 988.206482,784.789673 988.726562,785.011108 
	C986.500366,794.066589 984.274170,803.122070 981.646729,812.668823 
	C973.577271,805.054199 963.819763,801.354919 953.054260,799.746399 
	C952.079163,799.600708 951.135986,799.193176 950.198792,798.850403 
	C947.204529,797.755554 944.385254,796.063721 945.051331,792.512085 
	C945.410645,790.596680 947.436340,787.636902 948.840942,787.560791 
	C951.644226,787.408936 954.578674,788.805359 957.372986,789.802979 
	C958.431458,790.180847 959.296692,791.908752 960.175171,791.852478 
	C966.748962,791.431213 973.303955,790.717285 979.848389,790.096558 
	C978.174805,772.525635 961.025452,761.159241 943.901855,765.602722 
	C931.697998,768.769470 923.178955,778.827942 922.865234,790.440735 
	C922.473816,804.927002 929.941040,815.703491 943.476013,819.859375 
	C947.918579,821.223450 952.543640,821.986633 957.005249,823.296997 
	C960.680603,824.376526 963.669800,826.439697 964.252319,830.666565 
	C964.787964,834.553406 963.309692,837.543884 959.918335,839.473145 
	C956.113586,841.637268 952.104126,841.930786 948.754944,838.928589 
	C946.637146,837.030334 945.283630,834.279541 943.272217,831.471130 
	C936.901672,832.044678 930.014099,832.664734 922.972473,833.298706 
	C922.972473,834.608521 922.896423,835.436279 922.991943,836.243774 
	C923.108582,837.229675 923.319458,838.211853 923.575256,839.172729 
	C926.606567,850.556824 934.247803,857.623474 944.882507,861.876648 
	C936.560608,862.666199 928.238647,863.455811 919.293823,863.898315 
	C917.966309,856.656921 917.261780,849.762695 916.510437,842.409729 
	C903.539307,843.492004 890.914429,844.545410 877.991821,845.623657 
	C877.582825,840.579895 877.215393,836.049927 876.832764,831.331482 
	C887.644653,830.340210 897.674988,829.420593 908.121521,828.462891 
	C907.392944,820.960999 906.712341,813.953064 905.996582,806.582703 
	C895.229187,807.448914 885.199402,808.255798 874.890320,809.085144 
	C874.536072,805.522888 874.341431,802.549011 873.920593,799.607605 
	C873.465027,796.423645 874.568298,795.109863 877.906311,795.012939 
	C883.219116,794.858704 888.524902,794.324402 893.823059,793.836304 
	C899.853638,793.280762 905.872742,792.599365 912.256775,791.935181 
	C911.514465,784.234863 910.840576,777.244568 910.148560,770.065735 
	C889.639709,771.919006 869.990845,773.694641 849.636719,775.533936 
	C850.626892,787.158203 851.633362,798.364014 852.521851,809.579224 
	C853.374329,820.340637 854.104431,831.111694 854.888306,841.878540 
z"/>
<path fill="#010101" opacity="1.000000" stroke="none" 
	d="
M566.738159,683.294434 
	C569.399170,713.428772 571.963440,743.109558 574.558289,772.787720 
	C577.022644,800.973511 579.514709,829.156860 582.002625,857.340576 
	C584.871033,889.833984 587.755737,922.325989 590.618286,954.819946 
	C592.033997,970.889526 593.415771,986.962097 594.873901,1003.734680 
	C551.557251,1007.560913 508.393066,1011.373718 464.629974,1015.239380 
	C451.804657,869.791321 439.007812,724.666199 426.185608,579.253601 
	C390.130890,582.421875 354.569550,585.546814 318.569244,588.710327 
	C314.716827,545.044250 310.889069,501.657593 307.011353,457.704773 
	C422.373077,447.528473 537.502502,437.372681 653.297913,427.158112 
	C657.144226,470.730591 660.970215,514.072754 664.861511,558.155090 
	C628.834839,561.351501 592.964050,564.534058 556.465393,567.772339 
	C559.884460,606.383179 563.269653,644.611511 566.738159,683.294434 
z"/>
<path fill="#999999" opacity="1.000000" stroke="none" 
	d="
M773.659912,958.153137 
	C776.530212,965.235168 776.575500,965.138611 785.219788,964.085205 
	C791.806641,963.282410 798.442566,962.888550 805.050415,962.248535 
	C808.511047,961.913391 809.782715,963.389465 809.821899,966.838257 
	C809.860352,970.222229 810.541870,973.598877 812.041077,977.140381 
	C812.457581,976.246521 813.029663,975.392090 813.267700,974.453003 
	C818.152039,955.180359 823.028992,935.905640 827.838562,916.614197 
	C830.038147,907.791321 832.261353,898.967285 834.112305,890.068604 
	C834.730774,887.095459 836.138611,886.387146 838.802429,886.152039 
	C843.205627,885.763550 847.593933,885.109497 851.954773,884.368530 
	C855.458740,883.773132 856.760803,886.098022 857.808838,888.571045 
	C862.797424,900.342590 867.665649,912.165039 872.610535,923.955139 
	C879.007751,939.208008 885.408569,954.459473 891.886047,969.678223 
	C892.759094,971.729553 894.086914,973.587402 895.412415,975.897949 
	C888.058716,976.861389 881.653503,977.527893 875.313354,978.584595 
	C870.035645,979.464233 869.012878,975.153687 867.929871,972.133911 
	C866.579346,968.368225 864.798584,967.929871 861.259460,968.390564 
	C855.015930,969.203308 848.693115,969.511047 842.393005,969.739380 
	C839.452576,969.846008 838.106567,970.705994 837.286316,973.788025 
	C834.964050,982.513611 834.720398,982.049744 825.711121,982.793884 
	C813.712769,983.784973 801.784485,985.594727 789.805237,986.854126 
	C779.749390,987.911377 769.644958,988.519104 759.599915,989.659973 
	C755.272095,990.151428 753.869568,988.069885 753.565430,984.449280 
	C752.800720,975.346313 752.172180,966.231812 751.383179,957.131104 
	C749.820740,939.111084 748.165222,921.099182 746.609619,903.078613 
	C746.411926,900.787842 746.582581,898.465332 746.582581,895.487183 
	C752.968262,894.857910 759.335327,894.012634 765.724304,893.788452 
	C766.971680,893.744690 769.303040,896.014526 769.436829,897.383179 
	C770.404297,907.284241 770.935486,917.227966 771.146790,927.426819 
	C769.785400,918.675781 768.705322,909.668457 768.070007,900.629883 
	C767.832092,897.246094 766.802063,895.648560 763.331238,895.982849 
	C759.543701,896.347595 755.702026,896.404480 751.988037,897.129028 
	C750.815186,897.357910 749.150452,899.293274 749.135559,900.465759 
	C749.083008,904.585876 749.661133,908.713013 749.980469,912.839050 
	C750.696106,922.085388 751.314941,931.340210 752.128723,940.577820 
	C753.348083,954.418091 754.680420,968.248535 756.021484,982.077698 
	C756.204163,983.961609 756.713989,985.813843 756.995422,987.280273 
	C763.643250,986.825562 769.585876,986.521179 775.507629,985.985352 
	C781.420898,985.450256 787.304077,984.223389 793.216370,984.107178 
	C808.835815,983.800171 808.839172,983.974304 807.984009,968.321289 
	C807.947693,967.656677 808.163696,966.797180 807.827942,966.369141 
	C807.202515,965.571960 806.216980,964.418274 805.450928,964.468750 
	C797.362488,965.001892 789.230164,965.354248 781.225525,966.537903 
	C773.296936,967.710449 771.806213,966.405945 773.659912,958.153137 
z"/>
<path fill="#7D7C7C" opacity="1.000000" stroke="none" 
	d="
M1060.406250,852.032959 
	C1058.832642,837.548889 1057.772949,823.142578 1056.565918,808.748718 
	C1055.150635,791.871765 1053.607178,775.005432 1052.063843,757.505615 
	C1064.040649,757.070618 1075.562744,753.849609 1087.349243,756.700500 
	C1114.382690,763.239258 1125.696411,791.990906 1106.513672,813.721313 
	C1114.007324,824.136108 1121.549683,834.618774 1129.118530,845.451233 
	C1121.046021,846.561890 1112.947144,847.322754 1104.288574,847.690186 
	C1099.139282,841.164917 1094.333008,835.180054 1090.039062,828.847778 
	C1087.356445,824.891663 1084.540039,824.017395 1080.482788,826.516113 
	C1081.021851,834.325623 1081.558472,842.100586 1082.095093,849.875488 
	C1075.015015,850.622437 1067.935059,851.369385 1060.406250,852.032959 
M1085.754150,779.390198 
	C1082.761597,778.743164 1079.769043,778.096130 1075.968750,777.274414 
	C1076.830811,786.700684 1077.602783,795.143433 1078.380005,803.641541 
	C1087.147095,802.032104 1093.100708,797.391785 1093.862549,791.566162 
	C1094.627686,785.713928 1091.050049,782.353699 1085.754150,779.390198 
z"/>
<path fill="#7B7A7A" opacity="1.000000" stroke="none" 
	d="
M854.840454,842.245972 
	C854.104431,831.111694 853.374329,820.340637 852.521851,809.579224 
	C851.633362,798.364014 850.626892,787.158203 849.636719,775.533936 
	C869.990845,773.694641 889.639709,771.919006 910.148560,770.065735 
	C910.840576,777.244568 911.514465,784.234863 912.256775,791.935181 
	C905.872742,792.599365 899.853638,793.280762 893.823059,793.836304 
	C888.524902,794.324402 883.219116,794.858704 877.906311,795.012939 
	C874.568298,795.109863 873.465027,796.423645 873.920593,799.607605 
	C874.341431,802.549011 874.536072,805.522888 874.890320,809.085144 
	C885.199402,808.255798 895.229187,807.448914 905.996582,806.582703 
	C906.712341,813.953064 907.392944,820.960999 908.121521,828.462891 
	C897.674988,829.420593 887.644653,830.340210 876.832764,831.331482 
	C877.215393,836.049927 877.582825,840.579895 877.991821,845.623657 
	C890.914429,844.545410 903.539307,843.492004 916.510437,842.409729 
	C917.261780,849.762695 917.966309,856.656921 918.837402,863.953613 
	C911.142578,865.231262 903.295349,866.274841 895.416321,866.942627 
	C883.195251,867.978394 870.952515,868.758057 858.276611,869.678406 
	C857.104736,860.574585 855.948669,851.594055 854.840454,842.245972 
z"/>
<path fill="#838282" opacity="1.000000" stroke="none" 
	d="
M598.583008,941.514648 
	C597.743835,932.287354 597.036926,923.509949 596.226746,914.742188 
	C595.905823,911.269348 596.450073,909.317688 600.788635,909.015381 
	C616.192322,907.942139 631.559448,906.352844 646.946228,905.026062 
	C656.116821,904.235291 656.124512,904.291382 656.772644,913.570496 
	C656.888672,915.230652 656.727539,916.951172 657.108582,918.544739 
	C658.675415,925.096252 658.910217,925.790588 650.182495,926.753540 
	C641.767822,927.681946 633.315308,928.322083 624.864319,928.843201 
	C620.643921,929.103455 619.506104,930.778320 620.242981,934.943176 
	C621.666809,942.990906 621.431641,942.856506 629.745361,941.750732 
	C635.829346,940.941467 641.977844,940.492310 648.111206,940.284058 
	C649.327576,940.242798 651.495911,941.864990 651.703247,942.998474 
	C652.656067,948.206848 653.274109,953.505188 653.500305,958.793213 
	C653.544678,959.832153 651.425476,961.766663 650.135254,961.926636 
	C642.889038,962.825134 635.600891,963.540649 628.307251,963.843140 
	C623.948792,964.023926 622.425964,965.550659 622.953796,969.949768 
	C623.992798,978.609802 623.841125,978.723572 632.393921,978.096558 
	C641.011108,977.464905 649.627319,976.750916 658.212341,975.790222 
	C660.999634,975.478271 662.333252,976.115845 662.565674,978.935242 
	C662.961365,983.736511 663.377563,988.537354 663.888977,993.327271 
	C664.190125,996.148315 663.398438,997.645630 660.240173,997.881348 
	C648.640930,998.747009 637.049927,999.740906 625.469788,1000.834717 
	C620.112122,1001.340698 614.760254,1002.031494 609.454895,1002.928772 
	C605.001343,1003.681824 603.526184,1001.617432 603.231750,997.593506 
	C602.286072,984.667664 601.240234,971.748962 600.192932,958.830811 
	C599.736816,953.205933 599.183105,947.588989 598.583008,941.514648 
z"/>
<path fill="#7D7C7C" opacity="1.000000" stroke="none" 
	d="
M1133.116455,845.688232 
	C1135.727539,833.459106 1138.755981,821.419067 1141.733398,809.366577 
	C1141.923340,808.597290 1141.717773,807.730286 1141.798706,806.516602 
	C1144.602417,795.893250 1147.350708,785.674133 1149.990112,775.427002 
	C1152.021484,767.539917 1154.069092,759.650635 1155.789673,751.693115 
	C1156.399780,748.871399 1157.543335,747.879150 1160.384766,747.756226 
	C1165.027832,747.555298 1169.643555,746.670532 1174.285156,746.523560 
	C1175.659912,746.480042 1177.872192,747.608459 1178.367432,748.768982 
	C1190.896973,778.124329 1203.248779,807.555603 1215.620850,836.978088 
	C1215.674927,837.106567 1215.571167,837.301392 1215.487183,837.759583 
	C1208.831421,838.419739 1202.099854,839.288330 1195.343506,839.576782 
	C1194.092041,839.630249 1192.237183,837.585693 1191.520874,836.095947 
	C1188.110840,829.005005 1188.220703,828.999878 1180.405884,829.712646 
	C1174.606567,830.241577 1168.772461,830.458923 1163.002441,831.195496 
	C1161.382324,831.402405 1158.628174,832.925781 1158.606689,833.894531 
	C1158.363525,844.832581 1149.922607,843.927002 1142.946289,845.038940 
	C1139.839355,845.534180 1136.665527,845.609009 1133.116455,845.688232 
M1176.941650,801.609253 
	C1174.867310,796.828918 1172.793091,792.048523 1170.202271,786.077759 
	C1168.184570,794.299194 1166.477661,801.254456 1164.606445,808.878967 
	C1169.880737,808.377014 1174.331665,807.953491 1179.291626,807.481445 
	C1178.407104,805.323792 1177.795654,803.832092 1176.941650,801.609253 
z"/>
<path fill="#7E7D7D" opacity="1.000000" stroke="none" 
	d="
M770.154785,877.746399 
	C775.379211,854.782776 781.026550,831.981995 786.633484,809.171265 
	C786.904724,808.067871 786.820984,806.877258 787.004700,805.312439 
	C789.012024,797.904785 791.129333,790.959717 792.723145,783.896545 
	C793.405884,780.870850 794.640564,779.841858 797.653137,779.721558 
	C802.289001,779.536377 806.897522,778.668396 811.533569,778.478027 
	C812.779785,778.426880 814.804626,779.472595 815.255981,780.532593 
	C827.805847,810.004211 840.199097,839.542419 852.607300,869.074219 
	C852.661194,869.202454 852.557068,869.396973 852.487000,869.775330 
	C845.960938,870.419800 839.381714,871.300598 832.779419,871.537231 
	C831.365601,871.587891 829.268616,869.596497 828.512268,868.045471 
	C825.092224,861.031677 825.228638,861.009094 817.374634,861.722900 
	C811.749084,862.234131 806.116943,862.833984 800.477478,862.971558 
	C796.963135,863.057373 795.133972,864.456970 794.997314,867.839478 
	C794.758911,873.740784 791.474548,876.082581 785.909729,876.408386 
	C780.784668,876.708435 775.682129,877.392395 770.154785,877.746399 
M807.094116,840.331177 
	C809.989197,840.062378 812.884216,839.793518 816.376160,839.469299 
	C813.319702,832.297241 810.548218,825.793884 807.242249,818.036377 
	C805.207336,826.273560 803.487244,833.236572 801.686829,840.524414 
	C803.677673,840.524414 804.967651,840.524414 807.094116,840.331177 
z"/>
<path fill="#7C7B7B" opacity="1.000000" stroke="none" 
	d="
M945.305420,861.952271 
	C934.247803,857.623474 926.606567,850.556824 923.575256,839.172729 
	C923.319458,838.211853 923.108582,837.229675 922.991943,836.243774 
	C922.896423,835.436279 922.972473,834.608521 922.972473,833.298706 
	C930.014099,832.664734 936.901672,832.044678 943.272217,831.471130 
	C945.283630,834.279541 946.637146,837.030334 948.754944,838.928589 
	C952.104126,841.930786 956.113586,841.637268 959.918335,839.473145 
	C963.309692,837.543884 964.787964,834.553406 964.252319,830.666565 
	C963.669800,826.439697 960.680603,824.376526 957.005249,823.296997 
	C952.543640,821.986633 947.918579,821.223450 943.476013,819.859375 
	C929.941040,815.703491 922.473816,804.927002 922.865234,790.440735 
	C923.178955,778.827942 931.697998,768.769470 943.901855,765.602722 
	C961.025452,761.159241 978.174805,772.525635 979.848389,790.096558 
	C973.303955,790.717285 966.748962,791.431213 960.175171,791.852478 
	C959.296692,791.908752 958.431458,790.180847 957.372986,789.802979 
	C954.578674,788.805359 951.644226,787.408936 948.840942,787.560791 
	C947.436340,787.636902 945.410645,790.596680 945.051331,792.512085 
	C944.385254,796.063721 947.204529,797.755554 950.198792,798.850403 
	C951.135986,799.193176 952.079163,799.600708 953.054260,799.746399 
	C963.819763,801.354919 973.577271,805.054199 981.589050,813.052917 
	C983.398132,817.830444 985.380432,822.627808 986.225281,827.617676 
	C988.170227,839.105591 984.035217,848.544861 975.145813,855.893555 
	C966.451904,863.080566 956.410339,864.182068 945.305420,861.952271 
z"/>
<path fill="#828181" opacity="1.000000" stroke="none" 
	d="
M721.886719,899.920898 
	C727.704651,902.530029 733.164795,904.937439 738.510010,907.577515 
	C741.247498,908.929626 741.380310,910.764587 739.157898,913.092407 
	C736.059509,916.337830 733.073669,919.729309 730.395020,923.323120 
	C728.640991,925.676514 727.389221,926.069275 724.709900,924.475464 
	C714.255371,918.256409 701.699890,919.852661 693.430542,928.107300 
	C685.671814,935.852295 684.365723,948.961304 690.341980,959.106873 
	C697.755554,971.692505 715.420593,974.598450 727.320435,965.181824 
	C728.477783,964.265930 729.591248,963.294617 731.092712,962.042542 
	C735.741211,965.937927 740.251343,969.814758 744.874695,973.551697 
	C747.297485,975.510010 746.631470,977.042603 744.706055,978.820312 
	C733.744446,988.941406 721.134827,993.704468 705.995972,992.054138 
	C689.922668,990.302002 678.431396,982.063782 670.459534,968.509094 
	C657.170898,945.914551 666.420471,915.854004 689.904480,904.006287 
	C700.036621,898.894775 710.536011,898.043945 721.886719,899.920898 
z"/>
<path fill="#7E7D7D" opacity="1.000000" stroke="none" 
	d="
M989.199219,785.052734 
	C988.206482,784.789673 987.260376,784.616943 987.228699,784.339661 
	C986.450745,777.531799 985.769897,770.712830 985.045471,763.640015 
	C988.377380,763.158081 991.235413,762.744751 994.960205,762.359009 
	C997.959229,762.243591 1000.099792,762.176331 1002.222229,761.944153 
	C1011.327820,760.948242 1020.427979,759.903748 1029.530151,758.876953 
	C1033.788330,758.876953 1038.046631,758.876953 1043.043701,758.876953 
	C1043.687012,765.519592 1044.376099,772.635559 1045.111816,780.232239 
	C1040.930176,780.650940 1037.206543,781.023743 1033.214355,781.718933 
	C1031.166504,782.041321 1029.387329,782.041321 1027.088745,782.041321 
	C1029.186401,806.184814 1031.262085,830.075439 1033.376831,854.414429 
	C1025.849731,855.065125 1018.950073,855.661560 1011.400330,856.314209 
	C1009.225647,832.068054 1007.084595,808.196838 1004.913025,783.985229 
	C999.526978,784.377197 994.599365,784.735779 989.199219,785.052734 
z"/>
<path fill="#838282" opacity="1.000000" stroke="none" 
	d="
M773.727539,957.714722 
	C771.806213,966.405945 773.296936,967.710449 781.225525,966.537903 
	C789.230164,965.354248 797.362488,965.001892 805.450928,964.468750 
	C806.216980,964.418274 807.202515,965.571960 807.827942,966.369141 
	C808.163696,966.797180 807.947693,967.656677 807.984009,968.321289 
	C808.839172,983.974304 808.835815,983.800171 793.216370,984.107178 
	C787.304077,984.223389 781.420898,985.450256 775.507629,985.985352 
	C769.585876,986.521179 763.643250,986.825562 756.995422,987.280273 
	C756.713989,985.813843 756.204163,983.961609 756.021484,982.077698 
	C754.680420,968.248535 753.348083,954.418091 752.128723,940.577820 
	C751.314941,931.340210 750.696106,922.085388 749.980469,912.839050 
	C749.661133,908.713013 749.083008,904.585876 749.135559,900.465759 
	C749.150452,899.293274 750.815186,897.357910 751.988037,897.129028 
	C755.702026,896.404480 759.543701,896.347595 763.331238,895.982849 
	C766.802063,895.648560 767.832092,897.246094 768.070007,900.629883 
	C768.705322,909.668457 769.785400,918.675781 770.986450,927.862976 
	C771.327515,929.329346 771.370728,930.628174 771.242310,932.742310 
	C771.836182,939.731262 772.601685,945.904968 773.367188,952.078735 
	C773.509827,953.811279 773.652527,955.543762 773.727539,957.714722 
z"/>
<path fill="#050505" opacity="1.000000" stroke="none" 
	d="
M1082.533203,849.917480 
	C1081.558472,842.100586 1081.021851,834.325623 1080.482788,826.516113 
	C1084.540039,824.017395 1087.356445,824.891663 1090.039062,828.847778 
	C1094.333008,835.180054 1099.139282,841.164917 1103.830322,847.612244 
	C1096.944824,848.605042 1089.958130,849.282227 1082.533203,849.917480 
z"/>
<path fill="#999999" opacity="1.000000" stroke="none" 
	d="
M773.532104,951.636719 
	C772.601685,945.904968 771.836182,939.731262 771.163818,933.060486 
	C772.070374,938.773865 772.883728,944.984314 773.532104,951.636719 
z"/>
<path fill="#FCFCFC" opacity="1.000000" stroke="none" 
	d="
M1029.424316,758.448608 
	C1020.427979,759.903748 1011.327820,760.948242 1002.222229,761.944153 
	C1000.099792,762.176331 997.959229,762.243591 995.357910,762.439331 
	C996.887512,753.462646 998.758484,744.402710 1000.911255,735.410217 
	C1005.511902,716.192139 1010.253052,697.007629 1014.955078,677.813904 
	C1015.340027,676.242798 1015.865479,674.706055 1016.622620,672.151062 
	C1020.963257,701.508850 1025.140869,729.764526 1029.424316,758.448608 
z"/>
<path fill="#040404" opacity="1.000000" stroke="none" 
	d="
M1086.096680,779.573364 
	C1091.050049,782.353699 1094.627686,785.713928 1093.862549,791.566162 
	C1093.100708,797.391785 1087.147095,802.032104 1078.380005,803.641541 
	C1077.602783,795.143433 1076.830811,786.700684 1075.968750,777.274414 
	C1079.769043,778.096130 1082.761597,778.743164 1086.096680,779.573364 
z"/>
<path fill="#F9F9F9" opacity="1.000000" stroke="none" 
	d="
M1177.062988,801.974854 
	C1177.795654,803.832092 1178.407104,805.323792 1179.291626,807.481445 
	C1174.331665,807.953491 1169.880737,808.377014 1164.606445,808.878967 
	C1166.477661,801.254456 1168.184570,794.299194 1170.202271,786.077759 
	C1172.793091,792.048523 1174.867310,796.828918 1177.062988,801.974854 
z"/>
<path fill="#F9F9F9" opacity="1.000000" stroke="none" 
	d="
M806.675903,840.427795 
	C804.967651,840.524414 803.677673,840.524414 801.686829,840.524414 
	C803.487244,833.236572 805.207336,826.273560 807.242249,818.036377 
	C810.548218,825.793884 813.319702,832.297241 816.376160,839.469299 
	C812.884216,839.793518 809.989197,840.062378 806.675903,840.427795 
z"/>
</svg>