<svg xmlns="http://www.w3.org/2000/svg" width="128" height="128">
    <path style="stroke:none;fill-rule:nonzero;fill:#000;fill-opacity:1" d="M21.332 96h85.336c2.934 0 5.332-2.398 5.332-5.332 0-2.934-2.398-5.336-5.332-5.336H21.332c-2.934 0-5.332 2.402-5.332 5.336S18.398 96 21.332 96Zm0-26.668h85.336c2.934 0 5.332-2.398 5.332-5.332 0-2.934-2.398-5.332-5.332-5.332H21.332C18.398 58.668 16 61.066 16 64c0 2.934 2.398 5.332 5.332 5.332Zm-5.332-32c0 2.934 2.398 5.336 5.332 5.336h85.336c2.934 0 5.332-2.402 5.332-5.336S109.602 32 106.668 32H21.332C18.398 32 16 34.398 16 37.332Zm0 0"/>
</svg>
