<svg xmlns="http://www.w3.org/2000/svg" width="128" height="128">
    <path style="stroke:none;fill-rule:nonzero;fill:#000;fill-opacity:1" d="M90.668 37.332h26.664v53.336H90.668v10.664A5.335 5.335 0 0 0 96 106.668h10.668v10.664H93.332c-2.934 0-8-2.398-8-5.332 0 2.934-5.066 5.332-8 5.332H64v-10.664h10.668A5.335 5.335 0 0 0 80 101.332V26.668a5.335 5.335 0 0 0-5.332-5.336H64V10.668h13.332c2.934 0 8 2.398 8 5.332 0-2.934 5.066-5.332 8-5.332h13.336v10.664H96a5.335 5.335 0 0 0-5.332 5.336v10.664m-80 0h58.664V48h-48v32h48v10.668H10.668V37.332m96 42.668V48h-16v32h16M45.332 64a8 8 0 1 0-16 0 8 8 0 0 0 16 0m24-5.922c-3.254-2.984-8.32-2.719-11.305.59-2.988 3.2-2.718 8.266.641 11.254 2.934 2.77 7.625 2.77 10.664 0Zm0 0"/>
</svg>
