<svg xmlns="http://www.w3.org/2000/svg" width="128" height="128">
    <path style="stroke:none;fill-rule:nonzero;fill:#000;fill-opacity:1" d="M64 16c-26.46 0-48 21.54-48 48s21.54 48 48 48 48-21.54 48-48-21.54-48-48-48Zm0 8c22.14 0 40 17.86 40 40 0 20.11-14.754 36.645-34.047 39.516V75.664h11.39l1.79-11.57h-13.18v-6.32c0-4.805 1.578-9.07 6.07-9.07h7.22V38.608c-1.27-.172-3.954-.547-9.024-.547-10.594 0-16.797 5.594-16.797 18.336v7.696h-10.89v11.57h10.89v27.75C38.434 100.281 24 83.891 24 64c0-22.14 17.86-40 40-40Zm0 0"/>
</svg>
