<svg xmlns="http://www.w3.org/2000/svg" width="128" height="128">
    <path style="stroke:none;fill-rule:nonzero;fill:#000;fill-opacity:1" d="M64.027 35.25C45.855 35.25 31.2 48.074 31.2 63.977c0 15.898 14.656 28.722 32.828 28.722 18.172 0 32.828-12.824 32.828-28.722 0-15.903-14.656-28.727-32.828-28.727Zm0 47.398c-11.742 0-21.34-8.375-21.34-18.671 0-10.301 9.57-18.676 21.34-18.676 11.774 0 21.344 8.375 21.344 18.676 0 10.296-9.601 18.671-21.344 18.671Zm41.828-48.574c0 3.727-3.425 6.7-7.656 6.7-4.258 0-7.656-3-7.656-6.7 0-3.699 3.43-6.699 7.656-6.699 4.23 0 7.656 3 7.656 6.7Zm21.747 6.801c-.489-8.977-2.832-16.926-10.344-23.477-7.488-6.546-16.57-8.597-26.828-9.046-10.575-.528-42.258-.528-52.828 0-10.23.421-19.317 2.472-26.832 9.023C3.258 23.925.94 31.875.43 40.852c-.602 9.25-.602 36.972 0 46.222.484 8.977 2.828 16.926 10.34 23.477 7.515 6.55 16.574 8.597 26.832 9.05 10.57.524 42.253.524 52.828 0 10.257-.425 19.34-2.476 26.828-9.05 7.484-6.551 9.828-14.5 10.344-23.477.597-9.25.597-36.949 0-46.199ZM113.942 97c-2.227 4.898-6.544 8.676-12.172 10.648-8.426 2.926-28.426 2.25-37.743 2.25-9.312 0-29.34.653-37.742-2.25-5.598-1.949-9.914-5.722-12.172-10.648-3.343-7.375-2.57-24.875-2.57-33.023 0-8.153-.742-25.676 2.57-33.028 2.23-4.898 6.543-8.676 12.172-10.648 8.43-2.926 28.43-2.25 37.742-2.25 9.317 0 29.344-.653 37.743 2.25 5.601 1.949 9.918 5.722 12.171 10.648 3.344 7.375 2.575 24.875 2.575 33.028 0 8.148.77 25.671-2.575 33.023Zm0 0"/>
</svg>
