<svg xmlns="http://www.w3.org/2000/svg" width="128" height="128">
    <path style="stroke:none;fill-rule:nonzero;fill:#000;fill-opacity:1" d="M64 0C46.633 0 44.45.078 37.625.383c-6.824.32-11.473 1.394-15.547 2.976a31.407 31.407 0 0 0-11.336 7.383A31.458 31.458 0 0 0 3.36 22.078C1.777 26.145.695 30.801.383 37.602.078 44.442 0 46.617 0 64.008c0 17.375.078 19.55.383 26.375.32 6.816 1.394 11.465 2.976 15.539 1.641 4.207 3.825 7.773 7.383 11.336 3.555 3.558 7.121 5.75 11.328 7.383 4.082 1.582 8.723 2.664 15.54 2.976 6.831.305 9.007.383 26.39.383 17.383 0 19.55-.078 26.383-.383 6.808-.32 11.472-1.394 15.547-2.976a31.428 31.428 0 0 0 11.328-7.383c3.558-3.563 5.742-7.13 7.383-11.336 1.574-4.074 2.656-8.723 2.976-15.54.305-6.823.383-9 .383-26.382 0-17.383-.078-19.559-.383-26.39-.32-6.81-1.402-11.465-2.976-15.532a31.458 31.458 0 0 0-7.383-11.336 31.322 31.322 0 0 0-11.336-7.383C101.84 1.777 97.184.695 90.375.383 83.543.078 81.375 0 63.985 0h.023Zm-5.734 11.535h5.742c17.09 0 19.113.059 25.855.367 6.242.282 9.633 1.328 11.89 2.203 2.981 1.16 5.118 2.551 7.36 4.79 2.239 2.242 3.621 4.37 4.782 7.363.882 2.246 1.921 5.637 2.203 11.879.308 6.742.375 8.765.375 25.847 0 17.078-.067 19.114-.375 25.856-.282 6.238-1.328 9.625-2.203 11.879a19.724 19.724 0 0 1-4.79 7.351c-2.242 2.243-4.37 3.625-7.363 4.785-2.238.88-5.629 1.922-11.879 2.207-6.742.305-8.765.38-25.855.38-17.086 0-19.121-.075-25.863-.38-6.243-.285-9.625-1.328-11.88-2.207a19.821 19.821 0 0 1-7.363-4.785 19.804 19.804 0 0 1-4.797-7.36c-.875-2.245-1.921-5.64-2.203-11.878-.3-6.742-.367-8.77-.367-25.863 0-17.09.067-19.106.367-25.848.29-6.242 1.328-9.633 2.211-11.89 1.16-2.985 2.551-5.118 4.79-7.36 2.242-2.238 4.37-3.625 7.363-4.781 2.254-.883 5.636-1.922 11.879-2.211 5.902-.27 8.19-.352 20.12-.36ZM98.168 22.16a7.679 7.679 0 0 0-7.68 7.68 7.679 7.679 0 0 0 7.68 7.68 7.679 7.679 0 0 0 7.68-7.68 7.679 7.679 0 0 0-7.68-7.68Zm-34.16 8.977a32.865 32.865 0 0 0-28.895 16.285 32.857 32.857 0 0 0 0 33.164A32.865 32.865 0 0 0 64.008 96.87c17.953-.277 32.36-14.914 32.36-32.867 0-17.953-14.407-32.586-32.36-32.867Zm0 11.527c11.785 0 21.336 9.55 21.336 21.336 0 11.785-9.551 21.336-21.336 21.336-11.785 0-21.336-9.55-21.336-21.336 0-11.785 9.55-21.336 21.336-21.336Zm0 0"/>
</svg>
