<svg xmlns="http://www.w3.org/2000/svg" width="128" height="128">
    <path style="stroke:none;fill-rule:nonzero;fill:#000;fill-opacity:1" d="M128 52.477c-12.578.027-24.848-3.407-35.078-9.813v44.68c-.008 16.945-12.031 32.11-30.168 38.047-18.14 5.937-38.586 1.402-51.3-11.375-12.72-12.782-15.036-31.125-5.817-46.028 9.218-14.906 28.039-23.238 47.218-20.91v22.473c-8.792-2.422-18.367.379-23.73 6.937-5.367 6.559-5.309 15.39.145 21.895 5.453 6.5 15.066 9.203 23.828 6.691 8.757-2.511 14.683-9.664 14.683-17.73V0h25.14c-.015 1.86.161 3.715.532 5.543 1.766 8.254 7.336 15.508 15.402 20.055 5.68 3.285 12.336 5.035 19.145 5.035Zm0 0"/>
</svg>
