<svg xmlns="http://www.w3.org/2000/svg" width="128" height="128">
    <path style="stroke:none;fill-rule:nonzero;fill:#000;fill-opacity:1" d="M64.406 15.992h.715c6.574.024 39.895.266 48.879 2.68a16.08 16.08 0 0 1 11.32 11.36c.809 3.038 1.375 7.066 1.758 11.214l.082.832.176 2.082.062.832c.524 7.313.586 14.16.594 15.656v.598c-.008 1.555-.082 8.867-.656 16.48l-.063.84-.074.832c-.398 4.579-.992 9.122-1.879 12.465a16.052 16.052 0 0 1-11.32 11.36c-9.281 2.496-44.55 2.672-49.441 2.68h-1.133c-2.473 0-12.7-.048-23.418-.415l-1.36-.047-.695-.035-1.367-.054-1.371-.055c-8.88-.395-17.336-1.024-21.23-2.082a16.055 16.055 0 0 1-11.32-11.352c-.888-3.336-1.481-7.886-1.88-12.465l-.066-.84-.063-.831A251.683 251.683 0 0 1 0 61.44v-.976c.016-1.723.078-7.664.512-14.227l.054-.824L.594 45l.062-.832.176-2.078.078-.832c.387-4.153.953-8.188 1.762-11.219a16.052 16.052 0 0 1 11.32-11.36c3.895-1.038 12.352-1.679 21.23-2.077l1.364-.059 2.062-.07 1.368-.059A810.09 810.09 0 0 1 62.863 16h1.543ZM51.2 41.672v38.543l33.258-19.262Zm0 0"/>
</svg>
